<svg fill="none" height="255" viewBox="0 0 657 255" width="657" xmlns="http://www.w3.org/2000/svg" xmlns:xlink="http://www.w3.org/1999/xlink"><clipPath id="a"><path d="m0 0h656.31v255h-656.31z"/></clipPath><g clip-path="url(#a)"><path d="m231.27 183.094 10.055-26.132c.341-.854 1.193-1.537 2.215-1.537h1.875c1.193 0 2.045 1.025 2.045 2.05 0 .341 0 .512-.17.683l-13.123 33.135c-.341.854-1.193 1.537-2.216 1.537h-1.704c-1.022 0-1.875-.513-2.215-1.537l-13.464-33.135c-.171-.342-.171-.512-.171-.854 0-1.025.853-2.05 2.046-2.05h2.215c1.023 0 1.875.513 2.216 1.538z" fill="#541ac3"/><path d="m267.229 190.78c0 1.025-.852 2.05-2.045 2.05h-2.556c-1.023 0-2.045-.854-2.045-2.05v-33.476c0-1.025.852-2.05 2.045-2.05h2.556c1.023 0 2.045.854 2.045 2.05z" fill="#541ac3"/><path d="m284.103 184.29c.341-.341.852-.512 1.363-.512s1.023.171 1.534.512c2.386 2.05 4.601 3.075 6.817 3.075 3.068 0 5.454-1.538 5.454-4.441 0-7.344-16.873-5.466-16.873-17.763 0-5.636 4.432-10.248 11.589-10.248 3.409 0 6.136.683 8.863 2.22.511.342 1.022 1.025 1.022 1.708 0 .342-.17.684-.341.854l-1.022 1.708c-.341.684-1.023 1.025-1.704 1.025-.341 0-.682 0-1.023-.171-2.045-1.024-3.749-1.366-5.283-1.366-3.238 0-5.283 1.708-5.283 4.099 0 7.686 16.872 5.295 16.872 17.763 0 6.32-5.454 10.589-12.441 10.589-4.091 0-7.329-1.195-11.078-4.611-.341-.342-.682-1.025-.682-1.537 0-.342.171-.854.511-1.196z" fill="#541ac3"/><path d="m327.22 190.78c0 1.025-.852 2.05-2.045 2.05h-2.556c-1.023 0-2.045-.854-2.045-2.05v-33.476c0-1.025.852-2.05 2.045-2.05h2.556c1.023 0 2.045.854 2.045 2.05z" fill="#541ac3"/><path d="m359.77 154.742c11.078 0 19.429 7.686 19.429 19.301 0 11.272-8.351 19.3-19.429 19.3-11.077 0-19.428-7.686-19.428-19.3.17-10.761 8.01-19.301 19.428-19.301zm0 32.452c7.84 0 12.441-5.807 12.441-13.151 0-7.686-5.453-13.152-12.441-13.152-7.158 0-12.441 5.466-12.441 13.152 0 7.515 5.454 13.151 12.441 13.151z" fill="#541ac3"/><path d="m420.613 155.425c1.023 0 2.045.854 2.045 2.05v33.476c0 1.025-.852 2.05-2.045 2.05h-1.875c-1.022 0-1.704-.513-2.385-1.367l-19.429-24.595v23.912c0 1.025-.852 2.05-2.045 2.05h-2.216c-1.022 0-2.045-.854-2.045-2.05v-33.647c0-1.025.852-2.05 2.045-2.05h1.875c1.023 0 1.704.513 2.386 1.367l19.429 24.765v-24.082c0-1.025.852-2.05 2.045-2.05h2.215z" fill="#541ac3"/><path d="m17.8948 177.287c18.9173 17.763 36.812 26.644 53.6842 26.644 8.5213 0 16.0201-2.732 22.1554-8.369 6.1354-5.465 9.2026-12.297 9.2026-20.154 0-6.319-2.215-12.126-6.4758-17.079-4.431-4.954-12.7819-10.59-25.0526-16.739-17.2131-8.539-30.5063-18.104-39.5389-28.523-9.0326-10.247-13.6341-23.3988-13.8045-39.1122-11.41858 14.1762-18.0652 32.1102-18.0652 51.5812 0 19.641 6.64662 37.575 17.8948 51.751z" fill="#af88f8"/><path d="m147.077 71.5636c-15.508-14.8594-30.335-22.0328-44.481-22.0328-6.9872 0-13.1226 2.0495-18.4058 6.3195-5.1128 4.2699-7.8396 9.3938-7.8396 15.3717s2.0451 10.931 6.3058 15.2009c4.0902 4.27 11.7594 8.8815 23.0076 13.8341 18.406 8.199 32.551 17.763 42.095 28.353 6.647 7.515 11.078 17.08 12.953 28.352 3.919-9.735 6.135-20.325 6.135-31.427 0-20.495-7.328-39.4537-19.77-53.9714z" fill="#af88f8"/><g fill="#541ac3"><path d="m83.5081 42.0161c25.5639 0 48.4009 11.6142 63.7399 29.7187v-58.5834c-17.554-8.71068-34.427-13.1514-50.7875-13.1514-23.6892 0-42.6065 7.00268-56.9223 21.1788-14.3158 14.1762-21.4737 31.4267-21.4737 51.9223v.854c15.1679-19.4708 38.8571-31.939 65.4436-31.939z"/><path d="m83.5086 209.226c-26.5865 0-50.2757-12.468-65.6141-31.939v60.975c21.1329 11.102 41.0728 16.567 59.3084 16.567 23.6891 0 43.7991-8.027 60.1601-24.253s24.712-35.697 24.712-58.583c0-5.295-.511-10.419-1.363-15.031-12.271 30.744-42.266 52.264-77.2034 52.264z"/><path d="m346.477 122.119c0 1.879-1.705 3.587-3.579 3.587h-4.772c-1.875 0-3.579-1.708-3.579-3.587v-60.9742c0-1.8787 1.704-3.5867 3.579-3.5867h5.624c1.704 0 3.579 1.0248 4.601 2.3912l21.474 29.377 20.451-29.377c1.023-1.5372 2.897-2.3912 4.602-2.3912h4.772c1.874 0 3.579 1.708 3.579 3.5867v60.9742c0 1.879-1.705 3.587-3.579 3.587h-4.602c-1.875 0-3.579-1.708-3.579-3.587v-45.7732l-17.724 25.1072c-1.193 1.708-2.897 2.562-4.602 2.562-1.704 0-3.408-.854-4.601-2.562l-17.895-24.7656v45.4316z"/><path d="m418.394 110.164c.853-.854 1.534-1.025 2.386-1.025 1.023 0 1.875.342 2.727 1.025 4.431 3.586 8.522 5.465 12.271 5.465 5.624 0 9.885-2.903 9.885-8.027 0-13.4932-30.847-10.0773-30.847-32.2809 0-10.2478 8.01-18.7877 21.132-18.7877 6.306 0 11.078 1.1956 16.191 4.27 1.022.5124 1.704 1.8787 1.704 3.0743 0 .5124-.17 1.1956-.511 1.708l-1.875 3.2451c-.852 1.1956-1.874 1.8788-3.238 1.8788-.511 0-1.193-.1708-1.704-.3416-3.579-1.708-6.817-2.5619-9.714-2.5619-5.965 0-9.544 3.0743-9.544 7.515 0 14.1762 30.847 9.5647 30.847 32.2809 0 11.443-10.055 19.3-22.837 19.3-7.329 0-13.464-2.05-20.111-8.369-.852-.683-1.193-1.708-1.193-2.904 0-.854.341-1.537.853-2.22z"/><path d="m481.113 108.286-5.965 14.688c-.511 1.708-2.216 2.733-3.92 2.733h-3.579c-2.215 0-3.749-1.708-3.749-3.758 0-.341.17-.854.341-1.366l25.393-60.4621c.682-1.7079 2.386-2.7327 4.09-2.7327h4.602c1.704 0 3.408 1.0248 4.09 2.7327l25.394 60.4621c.17.512.341 1.025.341 1.366 0 2.05-1.534 3.758-3.75 3.758h-4.26c-1.705 0-3.409-1.025-3.92-2.733l-5.965-14.688zm4.601-11.2729h19.94l-9.884-24.2532z"/><path d="m556.1 100.087h-8.351v21.862c0 1.879-1.704 3.587-3.579 3.587h-4.772c-1.874 0-3.579-1.708-3.579-3.587v-60.8033c0-1.8787 1.534-3.5867 3.579-3.5867 5.795-.1708 15.509-.1708 17.043-.1708 18.576 0 24.712 9.223 24.712 21.008 0 11.6142-7.499 17.5921-13.123 19.4709l16.872 22.2039c.511.683.852 1.537.852 2.22 0 1.879-1.534 3.587-3.579 3.587h-4.431c-1.704 0-3.579-1.025-4.601-2.391zm-.511-11.1014c6.987 0 12.952-3.5867 12.952-10.5894 0-5.2947-2.897-9.9062-12.611-9.9062-2.216 0-4.943.1708-8.181.1708v20.3248z"/><path d="m609.274 108.286-5.965 14.688c-.512 1.708-2.216 2.733-3.92 2.733h-3.579c-2.216 0-3.749-1.708-3.749-3.758 0-.341.17-.854.34-1.366l25.394-60.4621c.682-1.7079 2.386-2.7327 4.09-2.7327h4.602c1.704 0 3.408 1.0248 4.09 2.7327l25.393 60.4621c.171.512.341 1.025.341 1.366 0 2.05-1.534 3.758-3.749 3.758h-4.261c-1.704 0-3.408-1.025-3.92-2.733l-5.964-14.688zm4.601-11.2729h19.94l-9.885-24.2532z"/><path d="m216.952 110.164c.852-.854 1.534-1.025 2.386-1.025 1.023 0 1.875.342 2.727 1.025 4.431 3.586 8.521 5.465 12.271 5.465 5.624 0 9.884-2.903 9.884-8.027 0-13.4932-30.847-10.0773-30.847-32.2809 0-10.2478 8.01-18.7877 21.133-18.7877 6.306 0 11.078 1.1956 16.191 4.27 1.022.5124 1.704 1.8787 1.704 3.0743 0 .5124-.171 1.1956-.512 1.708l-1.874 3.2451c-.852 1.1956-1.875 1.8788-3.238 1.8788-.512 0-1.193-.1708-1.705-.3416-3.579-1.708-6.817-2.5619-9.714-2.5619-5.965 0-9.544 3.0743-9.544 7.515 0 14.1762 30.847 9.5647 30.847 32.2809 0 11.443-10.055 19.3-22.837 19.3-7.328 0-13.463-2.05-20.11-8.369-.852-.683-1.193-1.708-1.193-2.904 0-.854.341-1.537.852-2.22z"/><path d="m279.669 108.286-5.965 14.688c-.511 1.708-2.215 2.733-3.92 2.733h-3.579c-2.215 0-3.749-1.708-3.749-3.758 0-.341.17-.854.341-1.366l25.393-60.4621c.682-1.7079 2.386-2.7327 4.091-2.7327h4.601c1.704 0 3.409 1.0248 4.09 2.7327l25.394 60.4621c.17.512.341 1.025.341 1.366 0 2.05-1.534 3.758-3.75 3.758h-4.26c-1.705 0-3.409-1.025-3.92-2.733l-5.965-14.688zm4.602-11.2729h19.94l-9.885-24.2532z"/></g></g></svg>